<?xml version="1.0" encoding="utf-8"?>
<!-- Generator: Adobe Illustrator 24.0.2, SVG Export Plug-In . SVG Version: 6.00 Build 0)  -->
<svg version="1.1" id="Layer_1" xmlns="http://www.w3.org/2000/svg" xmlns:xlink="http://www.w3.org/1999/xlink" x="0px" y="0px"
	 viewBox="0 0 35.85 30.31" style="enable-background:new 0 0 35.85 30.31;" xml:space="preserve">
<style type="text/css">
	.st0{fill:#FDFDFE;}
	.st1{fill:#8F5DE5;}
	.st2{fill:#8F5EE5;}
	.st3{fill:#F9F6FD;}
	.st4{fill:#F9F7FD;}
	.st5{fill:#FAF8FD;}
	.st6{fill:#F8F6FD;}
	.st7{fill:#F6F3FC;}
	.st8{fill:#FDFCFE;}
	.st9{fill:#FBFAFD;}
	.st10{fill:#FCFBFD;}
	.st11{fill:#9464E6;}
	.st12{fill:#9667E7;}
	.st13{fill:#9262E6;}
	.st14{fill:#905FE5;}
	.st15{fill:#9A6DE8;}
</style>
<g>
	<path class="st0" d="M35.85,30.31c-11.95,0-23.9,0-35.85,0C0,20.21,0,10.1,0,0c11.95,0,23.9,0,35.85,0
		C35.85,10.1,35.85,20.21,35.85,30.31z M6.84,13.05L6.84,13.05c0,0.03,0.01,0.06,0,0.09c-0.08,0.39-0.18,0.78-0.23,1.17
		c-0.18,1.37-0.35,2.74-0.52,4.1c-0.03,0.27-0.05,0.55-0.07,0.86c-0.4-0.37-0.56-0.84-0.79-1.28c-0.18,0.13-0.27,0.29-0.22,0.5
		c0.15,0.53,0.39,1,0.85,1.33c0.1,0.07,0.12,0.15,0.13,0.26c0.02,0.7,0.05,1.4,0.07,2.1c0.01,0.56,0.37,0.9,0.74,1.22
		c0-0.53-0.01-1.06,0-1.59c0.01-0.53,0.03-1.05,0.04-1.58c0.33-0.02,0.33-0.02,0.47,0.22c0.16,0.26,0.32,0.53,0.48,0.79
		c0.46,0.77,0.96,1.52,1.63,2.13c0.41,0.37,0.84,0.69,1.41,0.76c0.3,0.04,0.34,0.02,0.4-0.27c0.07-0.34,0.1-0.68-0.01-1.04
		c-0.59,0.22-1.1,0.03-1.53-0.32c-0.4-0.33-0.79-0.69-1.14-1.08c-0.34-0.38-0.62-0.82-0.94-1.24c0.07-0.03,0.1-0.05,0.14-0.06
		c0.56-0.18,1.03-0.49,1.43-0.91c1.54-1.58,1.72-4.03,0.72-5.81c-0.36-0.65-0.9-1.1-1.65-1.26c-0.46-0.1-0.91,0-1.36,0.09
		c-0.85,0.17-1.45,0.7-1.92,1.39c-0.99,1.47-1.27,3.12-1.17,4.85c0.03,0.5,0.34,0.88,0.76,1.15c0.05,0.03,0.12,0.02,0.18,0.02
		c0-0.06,0.01-0.11,0.01-0.17c-0.03-0.31-0.11-0.63-0.09-0.93c0.06-0.65,0.13-1.3,0.27-1.94c0.2-0.97,0.53-1.9,1.09-2.74
		C6.23,13.56,6.47,13.24,6.84,13.05z M30.74,16.91C30.74,16.91,30.74,16.9,30.74,16.91c-0.2,0.74-0.43,1.48-0.57,2.24
		c-0.1,0.57,0,1.15,0.39,1.63c0.18,0.22,0.41,0.3,0.68,0.23c0.37-0.1,0.56-0.39,0.73-0.7c0.41-0.73,0.5-1.55,0.66-2.35
		c0.02-0.12-0.15-0.34-0.27-0.34c-0.19-0.01-0.12,0.15-0.15,0.24c-0.12,0.55-0.19,1.11-0.47,1.61c-0.08,0.13-0.17,0.26-0.28,0.37
		c-0.15,0.16-0.29,0.11-0.33-0.1c-0.02-0.12-0.03-0.25,0-0.37c0.12-0.51,0.25-1.01,0.38-1.52c0.12-0.49,0.27-0.97,0.37-1.46
		c0.1-0.49-0.12-0.83-0.51-0.96c-0.34,0.35-0.67,0.69-1.01,1.05c0.02-0.41,0.08-0.77,0.05-1.12c-0.03-0.4-0.34-0.61-0.68-0.79
		c-0.04,0.25-0.07,0.48-0.1,0.71c-0.07,0.5-0.2,1,0.05,1.48c0.01,0.03,0.01,0.06,0,0.1c-0.16,0.75-0.3,1.5-0.48,2.24
		c-0.11,0.44-0.31,0.85-0.7,1.13c-0.27,0.19-0.51,0.17-0.69-0.1c-0.13-0.19-0.21-0.42-0.28-0.58c0.3-0.3,0.59-0.54,0.82-0.82
		c0.43-0.52,0.57-1.17,0.66-1.82c0.05-0.38-0.03-0.76-0.27-1.08c-0.19-0.26-0.47-0.36-0.78-0.27c-0.3,0.08-0.52,0.27-0.71,0.51
		c-0.51,0.62-0.67,1.37-0.75,2.13c-0.07,0.68-0.21,1.33-0.62,1.9c-0.06,0.09-0.14,0.16-0.22,0.24c-0.02-0.01-0.04-0.01-0.07-0.02
		c-0.02-0.28-0.06-0.57-0.05-0.85c0.03-0.86,0.07-1.73,0.12-2.59c0.03-0.48-0.19-0.82-0.53-1.1c-0.07-0.06-0.21-0.07-0.3-0.06
		c-0.25,0.04-0.4,0.23-0.54,0.43c-0.11,0.15-0.2,0.31-0.3,0.47c-0.06-0.12-0.1-0.22-0.15-0.31c-0.06-0.09-0.12-0.19-0.2-0.27
		c-0.32-0.35-0.57-0.35-0.9,0c-0.03,0.03-0.06,0.07-0.09,0.11c-0.12,0.18-0.24,0.35-0.36,0.53c-0.13-0.32-0.35-0.57-0.64-0.75
		c-0.23-0.14-0.31-0.09-0.31,0.18c-0.02,0.89,0.05,1.78-0.17,2.66c-0.12,0.48-0.27,0.95-0.44,1.42c-0.06,0.16-0.17,0.31-0.38,0.35
		c-0.02-0.06-0.05-0.11-0.05-0.15c-0.01-0.4-0.03-0.81-0.01-1.21c0.02-0.45,0.09-0.89-0.27-1.26c-0.08-0.08-0.16-0.17-0.24-0.26
		c0.18,0.01,0.2-0.11,0.17-0.25c-0.07-0.37-0.16-0.74-0.38-1.06c-0.32-0.47-0.87-0.59-1.31-0.23c-0.23,0.19-0.43,0.44-0.58,0.71
		c-0.34,0.6-0.45,1.28-0.53,1.96c-0.07,0.62-0.24,1.22-0.61,1.74c-0.06,0.08-0.14,0.15-0.21,0.23c-0.02-0.01-0.04-0.02-0.06-0.02
		c-0.02-0.21-0.06-0.42-0.05-0.63c0.04-0.95,0.08-1.91,0.13-2.86c0.02-0.35-0.14-0.62-0.35-0.86c-0.28-0.33-0.48-0.34-0.81-0.05
		c-0.05,0.05-0.11,0.1-0.15,0.16c-0.13,0.18-0.25,0.36-0.37,0.54c-0.22-0.51-0.63-0.85-0.96-0.77c0,0.35,0,0.7,0,1.05
		c0.01,0.88-0.07,1.74-0.35,2.57c-0.14,0.41-0.32,0.8-0.7,1.07c-0.25,0.18-0.49,0.15-0.66-0.1c-0.13-0.2-0.22-0.43-0.32-0.65
		c0.71-0.42,1.14-1.01,1.34-1.76c0.12-0.45,0.25-0.89,0.15-1.37c-0.18-0.84-0.85-1.09-1.49-0.53c-0.18,0.16-0.33,0.37-0.47,0.58
		c-0.32,0.5-0.42,1.08-0.5,1.66c-0.11,0.75-0.03,1.48,0.27,2.17c0.19,0.45,0.48,0.82,1.01,0.9c0.61,0.1,1.19-0.23,1.45-0.81
		c0.09-0.2,0.17-0.41,0.25-0.6c0.06,0.26,0.07,0.55,0.19,0.78c0.13,0.25,0.39,0.38,0.7,0.42c0-0.08,0-0.14,0-0.2
		c-0.04-0.51-0.09-1.02-0.11-1.53c-0.01-0.33-0.03-0.69,0.07-0.99c0.17-0.52,0.43-1.01,0.65-1.51c0.03-0.07,0.1-0.13,0.18-0.24
		c0.02,0.13,0.04,0.2,0.04,0.26c-0.01,0.35-0.04,0.71-0.05,1.06c-0.03,0.68-0.09,1.36,0.06,2.03c0.08,0.38,0.19,0.74,0.52,0.98
		c0.3,0.23,0.6,0.21,0.82-0.09c0.12-0.16,0.22-0.34,0.31-0.52c0.09-0.18,0.15-0.37,0.24-0.59c0.05,0.12,0.08,0.2,0.11,0.28
		c0.12,0.29,0.28,0.55,0.53,0.74c0.41,0.31,0.75,0.26,1.03-0.17c0.15-0.22,0.27-0.46,0.4-0.68c0.1,0.21,0.18,0.43,0.3,0.63
		c0.34,0.54,0.87,0.55,1.21,0.01c0.19-0.29,0.32-0.62,0.46-0.92c0.01,0.09,0.04,0.21,0.04,0.33c0.02,0.42,0.3,0.61,0.65,0.75
		c0.15,0.06,0.18,0,0.17-0.15c-0.04-0.44-0.07-0.89-0.12-1.33c-0.11-0.99,0.22-1.87,0.72-2.7c0.05-0.08,0.12-0.15,0.2-0.25
		c0,0.43,0,0.8,0,1.18c-0.01,0.87-0.05,1.74,0.12,2.6c0.06,0.3,0.48,0.62,0.8,0.58c-0.01-0.08-0.01-0.17-0.02-0.25
		c-0.04-0.59-0.09-1.17-0.11-1.76c-0.01-0.23-0.01-0.47,0.07-0.68c0.18-0.5,0.41-0.99,0.63-1.48c0.04-0.09,0.11-0.16,0.17-0.25
		c0.05,0.11,0.07,0.2,0.07,0.29c-0.02,0.52-0.05,1.05-0.09,1.57c-0.04,0.59,0,1.16,0.15,1.73c0.08,0.31,0.23,0.59,0.52,0.76
		c0.3,0.18,0.59,0.14,0.79-0.15c0.13-0.19,0.24-0.39,0.33-0.6c0.08-0.17,0.13-0.34,0.21-0.54c0.06,0.15,0.1,0.28,0.15,0.4
		c0.14,0.31,0.33,0.6,0.64,0.77c0.64,0.36,1.5,0.05,1.82-0.68c0.17-0.39,0.3-0.8,0.4-1.21c0.16-0.65,0.29-1.3,0.44-1.95
		c0.01-0.06,0.04-0.15,0.09-0.16C30.38,16.98,30.56,16.94,30.74,16.91z M34.73,9.91c0-0.1,0-0.17,0-0.24c0-2.32,0-4.64,0-6.96
		c0-0.86-0.57-1.43-1.42-1.43c-10.27,0-20.53,0-30.8,0c-0.85,0-1.43,0.59-1.43,1.43c0,2.33,0,4.65,0,6.98c0,0.07,0,0.14,0,0.22
		C12.3,9.91,23.5,9.91,34.73,9.91z M1.07,26.43c0,0.65-0.04,1.29,0.01,1.92c0.06,0.81,0.64,1.29,1.45,1.29c10.25,0,20.51,0,30.76,0
		c0.85,0,1.43-0.58,1.43-1.43c0-0.48,0-0.96,0-1.43c0-0.11,0-0.22,0-0.34C23.5,26.43,12.3,26.43,1.07,26.43z"/>
	<path class="st1" d="M34.73,9.91c-11.23,0-22.43,0-33.66,0c0-0.08,0-0.15,0-0.22c0-2.33,0-4.65,0-6.98c0-0.85,0.59-1.43,1.43-1.43
		c10.27,0,20.53,0,30.8,0c0.86,0,1.42,0.57,1.42,1.43c0,2.32,0,4.64,0,6.96C34.73,9.74,34.73,9.81,34.73,9.91z M21.26,7.4
		c-0.02,0-0.03,0-0.05,0c-0.02,0.07-0.03,0.15-0.06,0.22c-0.06,0.15-0.11,0.29-0.19,0.43c-0.03,0.06-0.13,0.11-0.19,0.1
		c-0.05,0-0.11-0.09-0.12-0.15c-0.01-0.05,0.04-0.13,0.09-0.17c0.25-0.21,0.35-0.49,0.33-0.8c-0.01-0.09-0.08-0.21-0.16-0.24
		c-0.07-0.03-0.21,0.01-0.28,0.07c-0.1,0.09-0.17,0.21-0.22,0.34c-0.06,0.16-0.07,0.33-0.12,0.49c-0.04,0.14-0.11,0.27-0.17,0.41
		c-0.02-0.01-0.05-0.01-0.07-0.02c0-0.07,0-0.14,0-0.21c0.02-0.25,0.06-0.5,0.06-0.74c0-0.11-0.1-0.22-0.15-0.34
		c-0.09,0.05-0.18,0.09-0.27,0.14c-0.02,0.01-0.03,0.04-0.05,0.06c-0.23-0.29-0.25-0.29-0.5-0.01c-0.08-0.07-0.15-0.14-0.27-0.24
		c-0.06,0.5-0.02,0.97-0.31,1.38c-0.04-0.32-0.08-0.6-0.11-0.89c-0.02-0.23-0.12-0.43-0.27-0.46C18,6.73,17.83,6.84,17.73,7.09
		c-0.07,0.17-0.1,0.37-0.15,0.54c-0.05,0.16-0.12,0.32-0.18,0.47c-0.02-0.01-0.05-0.01-0.07-0.02c0-0.07-0.01-0.14-0.01-0.2
		c0.02-0.27,0.06-0.55,0.06-0.82c0-0.09-0.08-0.21-0.16-0.26c-0.03-0.02-0.15,0.07-0.23,0.11c-0.03,0.01-0.05,0.04-0.07,0.06
		c-0.09-0.07-0.16-0.14-0.26-0.22c-0.02,0.11-0.03,0.17-0.04,0.24c-0.02,0.37-0.03,0.74-0.04,1.12c0,0.14,0.07,0.25,0.24,0.26
		c0-0.22-0.01-0.44,0-0.65c0.01-0.23,0.14-0.4,0.26-0.58c0,0.2-0.03,0.4-0.03,0.59c0,0.17,0.02,0.34,0.06,0.5
		c0.02,0.07,0.13,0.15,0.21,0.17c0.05,0.01,0.13-0.08,0.19-0.14c0.04-0.04,0.06-0.11,0.1-0.17c0.26,0.39,0.32,0.4,0.59,0.09
		c0.1,0.08,0.2,0.22,0.29,0.21c0.12-0.02,0.21-0.15,0.31-0.22c0.05,0.05,0.12,0.13,0.19,0.22c0.02-0.01,0.04-0.02,0.05-0.03
		c-0.01-0.42-0.07-0.85,0.27-1.21c0,0.1,0,0.17,0,0.24c0,0.25-0.01,0.51,0,0.76c0,0.14,0.09,0.2,0.24,0.22
		c-0.02-0.44-0.07-0.87,0.27-1.24c-0.01,0.28-0.03,0.54-0.03,0.8c0,0.11,0.02,0.22,0.06,0.32c0.09,0.2,0.27,0.21,0.39,0.02
		c0.04-0.06,0.08-0.14,0.12-0.21c0.18,0.38,0.49,0.49,0.68,0.21c0.15-0.22,0.2-0.51,0.29-0.78C21.31,7.48,21.27,7.44,21.26,7.4z
		 M14.15,7.14c0,0.32,0,0.64,0,0.96c0,0.15,0.07,0.24,0.24,0.27c-0.01-0.43-0.07-0.86,0.28-1.24c-0.01,0.15-0.04,0.26-0.03,0.37
		c0,0.23,0,0.46,0.03,0.68c0.01,0.08,0.12,0.18,0.2,0.2c0.06,0.01,0.16-0.08,0.22-0.15c0.04-0.04,0.06-0.11,0.09-0.17
		c0.13,0.38,0.2,0.41,0.49,0.19c-0.02,0.12-0.04,0.23-0.05,0.33c-0.47-0.14-0.7-0.07-0.81,0.23c-0.11,0.3-0.01,0.64,0.24,0.73
		c0.12,0.04,0.29,0.07,0.38,0.01c0.17-0.11,0.29-0.29,0.45-0.45c0.02,0.01,0.06,0.08,0.13,0.1c0.07,0.02,0.15,0,0.22,0
		c-0.01-0.07,0-0.14-0.03-0.19c-0.03-0.05-0.09-0.1-0.14-0.13c-0.13-0.07-0.15-0.17-0.13-0.31c0.06-0.46,0.11-0.92,0.15-1.38
		c0.02-0.23-0.06-0.35-0.27-0.41c-0.02,0.24-0.02,0.47-0.06,0.7c-0.07,0.45-0.13,0.53-0.29,0.6c0-0.08-0.01-0.15,0-0.22
		c0.02-0.25,0.06-0.49,0.08-0.74c0.01-0.18-0.08-0.3-0.26-0.37c-0.14,1.15-0.15,1.19-0.37,1.33c0-0.1-0.01-0.18,0-0.26
		c0.02-0.25,0.07-0.49,0.06-0.74c0-0.11-0.11-0.21-0.16-0.31c-0.09,0.05-0.18,0.1-0.26,0.16c-0.02,0.01-0.02,0.04-0.02,0.04
		c-0.11-0.08-0.2-0.19-0.28-0.19c-0.09,0-0.17,0.12-0.25,0.17c-0.08-0.07-0.16-0.13-0.28-0.23c-0.02,0.49-0.04,0.91-0.05,1.33
		c0,0.15,0.04,0.28,0.25,0.31C13.85,7.93,13.86,7.5,14.15,7.14z M14.04,5.43c0.03-0.01,0.06-0.01,0.09-0.02c0-0.3,0-0.6,0-0.92
		c0.06,0.02,0.07,0.03,0.09,0.03c0.07,0.03,0.15,0.16,0.23,0.02c0.07-0.12-0.05-0.16-0.12-0.2c-0.12-0.07-0.16-0.15-0.14-0.29
		c0.09-0.45,0.18-0.91,0.28-1.36c0.06-0.24,0.02-0.34-0.26-0.5C14.1,2.81,14,3.41,13.9,4.01c-0.24-0.12-0.23-0.12-0.19-0.35
		c0.05-0.28,0.09-0.55,0.12-0.83c0.02-0.22-0.04-0.42-0.18-0.58c-0.15-0.18-0.34-0.21-0.54-0.09c-0.34,0.21-0.61,0.97-0.49,1.36
		c0.19-0.04,0.18-0.05,0.2-0.22c0.03-0.3,0.06-0.61,0.28-0.84c0.08-0.08,0.23-0.14,0.34-0.12c0.07,0.01,0.16,0.19,0.15,0.28
		c-0.03,0.37-0.1,0.74-0.16,1.12c-0.33-0.1-0.61-0.14-0.88-0.03c-0.65,0.25-0.71,1.06-0.41,1.51c0.16,0.23,0.51,0.3,0.71,0.11
		c0.18-0.17,0.33-0.38,0.47-0.6c0.11-0.17,0.18-0.38,0.26-0.57c0.3,0.1,0.31,0.12,0.31,0.41c0,0.16-0.02,0.33,0.01,0.49
		C13.91,5.19,13.99,5.31,14.04,5.43z M16.93,3.32c-0.22,0.05-0.43,0.1-0.65,0.15c-0.02-0.28,0.17-0.54-0.05-0.8
		c0.07-0.02,0.12-0.04,0.17-0.04c0.23-0.04,0.45-0.07,0.68-0.11c0.05-0.01,0.13-0.05,0.13-0.08c0.02-0.13,0.01-0.26,0.01-0.4
		c-0.2,0.03-0.35,0.06-0.5,0.08c-0.43,0.07-0.85,0.14-1.22,0.39c-0.38,0.27-0.52,0.78-0.32,1.18c0.07,0.15,0.18,0.22,0.37,0.16
		c-0.13-0.23-0.33-0.44-0.14-0.71c0.15-0.22,0.35-0.37,0.64-0.43c-0.05,0.26-0.08,0.5-0.13,0.73c-0.02,0.1-0.08,0.2-0.16,0.27
		c-0.3,0.27-0.43,0.59-0.35,0.98c0.03,0.15,0.08,0.18,0.21,0.14c-0.15-0.36-0.08-0.65,0.2-0.81c0.01,0.26,0.01,0.53,0.05,0.8
		c0.07,0.47,0.4,0.67,0.85,0.53c0.29-0.09,0.35-0.29,0.2-0.53c-0.18,0.07-0.35,0.15-0.53,0.2C16.23,5.08,16.11,5,16.11,4.81
		c0-0.18-0.02-0.37,0-0.55c0.07-0.52-0.05-0.44,0.54-0.54C16.95,3.68,16.98,3.66,16.93,3.32z M24.93,3.52
		c-0.02,0-0.03-0.01-0.05-0.01c0-0.06,0-0.12-0.01-0.18c-0.03-0.34-0.08-0.68-0.27-0.97c-0.26-0.4-0.67-0.43-0.95-0.05
		c-0.15,0.21-0.28,0.45-0.33,0.7c-0.08,0.41-0.12,0.84-0.12,1.26c0,0.22,0.08,0.47,0.19,0.67c0.24,0.45,0.72,0.48,1.05,0.09
		c0.08-0.1,0.17-0.21,0.2-0.33C24.75,4.31,24.84,3.91,24.93,3.52z M18.77,2.26c-0.07,0.5-0.11,1.01-0.22,1.51
		c-0.1,0.47-0.26,0.92-0.39,1.39c-0.01,0.04,0.04,0.13,0.07,0.14c0.37,0.1,0.74,0.19,1.12,0.27c0.16,0.03,0.34,0.04,0.5,0.02
		c0.25-0.04,0.33-0.23,0.21-0.47c-0.56,0.31-1.09,0.02-1.65-0.04c0.29-0.76,0.49-1.51,0.59-2.29C19.05,2.49,19.01,2.4,18.77,2.26z
		 M21.35,2.25c0,0.2,0.02,0.39,0,0.59c-0.1,0.79-0.23,1.57-0.53,2.32c-0.01,0.04,0.03,0.13,0.06,0.14c0.38,0.1,0.77,0.2,1.16,0.28
		c0.15,0.03,0.31,0.04,0.46,0.02c0.25-0.04,0.33-0.21,0.22-0.47c-0.55,0.32-1.09,0.01-1.65-0.03c0.03-0.08,0.05-0.14,0.07-0.19
		c0.26-0.72,0.46-1.46,0.53-2.22C21.68,2.45,21.59,2.34,21.35,2.25z M22.48,6.54c-0.05,0.12-0.1,0.22-0.13,0.32
		c-0.09,0.3-0.17,0.6-0.26,0.9C22.05,7.89,21.98,8,21.92,8.11C21.9,8.1,21.88,8.1,21.86,8.09c0-0.07-0.01-0.15,0-0.22
		c0.04-0.24,0.08-0.48,0.12-0.71c0.04-0.2-0.06-0.3-0.24-0.39c-0.03,0.17-0.05,0.32-0.07,0.47c-0.03,0.27-0.08,0.55-0.07,0.82
		c0,0.12,0.08,0.31,0.18,0.35c0.15,0.07,0.22-0.11,0.3-0.21c0.01-0.01,0.02-0.01,0.03-0.02c0.03,0.04,0.05,0.11,0.09,0.13
		c0.11,0.06,0.24,0.14,0.34,0.12c0.08-0.01,0.17-0.16,0.19-0.25c0.02-0.13-0.03-0.27-0.04-0.4c-0.01-0.26-0.07-0.52-0.02-0.77
		C22.73,6.77,22.68,6.66,22.48,6.54z M21.77,5.91c0.05,0.32-0.09,0.63,0.23,0.86C22.05,6.45,22.17,6.14,21.77,5.91z"/>
	<path class="st1" d="M1.07,26.43c11.23,0,22.43,0,33.65,0c0,0.12,0,0.23,0,0.34c0,0.48,0,0.96,0,1.43c0,0.85-0.58,1.43-1.43,1.43
		c-10.25,0-20.51,0-30.76,0c-0.81,0-1.39-0.48-1.45-1.29C1.03,27.72,1.07,27.09,1.07,26.43z"/>
	<path class="st2" d="M30.74,16.91c-0.18,0.04-0.37,0.07-0.55,0.12c-0.04,0.01-0.07,0.1-0.09,0.16c-0.15,0.65-0.27,1.31-0.44,1.95
		c-0.1,0.41-0.23,0.82-0.4,1.21c-0.32,0.73-1.18,1.04-1.82,0.68c-0.31-0.18-0.5-0.46-0.64-0.77c-0.05-0.12-0.09-0.24-0.15-0.4
		c-0.07,0.2-0.13,0.37-0.21,0.54c-0.1,0.21-0.2,0.41-0.33,0.6c-0.2,0.29-0.49,0.33-0.79,0.15c-0.29-0.18-0.43-0.45-0.52-0.76
		c-0.15-0.57-0.19-1.15-0.15-1.73c0.03-0.52,0.06-1.05,0.09-1.57c0-0.09-0.02-0.18-0.07-0.29c-0.06,0.08-0.13,0.16-0.17,0.25
		c-0.22,0.49-0.44,0.98-0.63,1.48c-0.08,0.21-0.08,0.45-0.07,0.68c0.02,0.59,0.07,1.17,0.11,1.76c0.01,0.08,0.01,0.17,0.02,0.25
		c-0.31,0.04-0.74-0.28-0.8-0.58c-0.17-0.86-0.13-1.73-0.12-2.6c0.01-0.38,0-0.75,0-1.18c-0.08,0.1-0.15,0.17-0.2,0.25
		c-0.49,0.83-0.82,1.71-0.72,2.7c0.05,0.44,0.07,0.89,0.12,1.33c0.01,0.14-0.02,0.21-0.17,0.15c-0.35-0.14-0.63-0.33-0.65-0.75
		c-0.01-0.12-0.03-0.24-0.04-0.33c-0.15,0.29-0.28,0.62-0.46,0.92c-0.34,0.53-0.87,0.52-1.21-0.01c-0.12-0.2-0.2-0.42-0.3-0.63
		c-0.13,0.22-0.25,0.46-0.4,0.68c-0.28,0.43-0.62,0.48-1.03,0.17c-0.25-0.19-0.41-0.45-0.53-0.74c-0.03-0.08-0.07-0.16-0.11-0.28
		c-0.09,0.22-0.15,0.41-0.24,0.59c-0.09,0.18-0.19,0.36-0.31,0.52c-0.23,0.29-0.52,0.32-0.82,0.09c-0.33-0.25-0.44-0.61-0.52-0.98
		c-0.14-0.67-0.09-1.35-0.06-2.03c0.02-0.35,0.04-0.71,0.05-1.06c0-0.07-0.02-0.13-0.04-0.26c-0.09,0.11-0.15,0.17-0.18,0.24
		c-0.23,0.5-0.48,0.99-0.65,1.51c-0.1,0.31-0.08,0.66-0.07,0.99c0.02,0.51,0.07,1.02,0.11,1.53c0,0.06,0,0.11,0,0.2
		c-0.31-0.04-0.57-0.17-0.7-0.42c-0.12-0.23-0.13-0.52-0.19-0.78c-0.08,0.19-0.16,0.4-0.25,0.6c-0.27,0.58-0.84,0.9-1.45,0.81
		c-0.52-0.08-0.81-0.46-1.01-0.9c-0.3-0.69-0.38-1.43-0.27-2.17c0.08-0.58,0.18-1.16,0.5-1.66c0.13-0.21,0.28-0.42,0.47-0.58
		c0.64-0.56,1.31-0.31,1.49,0.53c0.1,0.48-0.02,0.92-0.15,1.37c-0.2,0.75-0.63,1.34-1.34,1.76c0.11,0.22,0.19,0.45,0.32,0.65
		c0.17,0.26,0.41,0.28,0.66,0.1c0.37-0.26,0.56-0.65,0.7-1.07c0.28-0.83,0.36-1.7,0.35-2.57c0-0.35,0-0.71,0-1.05
		c0.33-0.08,0.74,0.26,0.96,0.77c0.12-0.18,0.25-0.36,0.37-0.54c0.04-0.06,0.09-0.11,0.15-0.16c0.33-0.29,0.53-0.28,0.81,0.05
		c0.21,0.25,0.37,0.51,0.35,0.86c-0.05,0.95-0.1,1.91-0.13,2.86c-0.01,0.21,0.03,0.42,0.05,0.63c0.02,0.01,0.04,0.02,0.06,0.02
		c0.07-0.08,0.15-0.14,0.21-0.23c0.37-0.52,0.54-1.12,0.61-1.74c0.08-0.68,0.19-1.35,0.53-1.96c0.15-0.26,0.34-0.52,0.58-0.71
		c0.44-0.36,1-0.23,1.31,0.23c0.22,0.32,0.31,0.69,0.38,1.06c0.03,0.14,0.01,0.26-0.17,0.25c0.08,0.09,0.16,0.18,0.24,0.26
		c0.36,0.36,0.29,0.81,0.27,1.26c-0.02,0.4,0.01,0.81,0.01,1.21c0,0.05,0.03,0.1,0.05,0.15c0.21-0.04,0.32-0.19,0.38-0.35
		c0.16-0.47,0.32-0.94,0.44-1.42c0.21-0.87,0.15-1.77,0.17-2.66c0.01-0.27,0.08-0.31,0.31-0.18c0.3,0.17,0.51,0.42,0.64,0.75
		c0.12-0.18,0.24-0.36,0.36-0.53c0.03-0.04,0.06-0.07,0.09-0.11c0.33-0.35,0.58-0.35,0.9,0c0.07,0.08,0.14,0.17,0.2,0.27
		c0.06,0.09,0.1,0.2,0.15,0.31c0.1-0.16,0.2-0.32,0.3-0.47c0.14-0.19,0.29-0.38,0.54-0.43c0.1-0.02,0.23,0,0.3,0.06
		c0.34,0.28,0.56,0.62,0.53,1.1c-0.06,0.86-0.09,1.72-0.12,2.59c-0.01,0.28,0.03,0.57,0.05,0.85c0.02,0.01,0.04,0.01,0.07,0.02
		c0.07-0.08,0.15-0.15,0.22-0.24c0.4-0.57,0.55-1.22,0.62-1.9c0.08-0.77,0.24-1.51,0.75-2.13c0.19-0.23,0.41-0.43,0.71-0.51
		c0.31-0.08,0.59,0.01,0.78,0.27c0.23,0.32,0.32,0.7,0.27,1.08c-0.09,0.65-0.23,1.3-0.66,1.82c-0.23,0.28-0.52,0.52-0.82,0.82
		c0.08,0.16,0.16,0.38,0.28,0.58c0.18,0.27,0.42,0.3,0.69,0.1c0.39-0.28,0.59-0.69,0.7-1.13c0.19-0.74,0.32-1.49,0.48-2.24
		c0.01-0.03,0.01-0.07,0-0.1c-0.25-0.49-0.12-0.99-0.05-1.48c0.03-0.23,0.06-0.46,0.1-0.71c0.34,0.18,0.65,0.39,0.68,0.79
		c0.03,0.35-0.03,0.71-0.05,1.12c0.35-0.36,0.68-0.7,1.01-1.05c0.39,0.12,0.6,0.47,0.51,0.96c-0.1,0.49-0.24,0.98-0.37,1.46
		c-0.13,0.51-0.26,1.01-0.38,1.52c-0.03,0.12-0.02,0.25,0,0.37c0.04,0.21,0.18,0.26,0.33,0.1c0.11-0.11,0.2-0.24,0.28-0.37
		c0.28-0.5,0.35-1.06,0.47-1.61c0.02-0.09-0.04-0.25,0.15-0.24c0.13,0.01,0.3,0.22,0.27,0.34c-0.16,0.8-0.25,1.62-0.66,2.35
		c-0.17,0.3-0.36,0.6-0.73,0.7c-0.28,0.07-0.5-0.01-0.68-0.23c-0.39-0.48-0.49-1.06-0.39-1.63C30.31,18.39,30.55,17.65,30.74,16.91
		c0-0.01,0.01-0.01,0.01-0.01c0,0,0-0.01,0-0.01C30.75,16.89,30.75,16.9,30.74,16.91z M19.67,17.54c-0.07-0.2-0.12-0.41-0.2-0.59
		c-0.16-0.35-0.48-0.39-0.73-0.09c-0.12,0.14-0.22,0.31-0.29,0.49c-0.3,0.76-0.37,1.55-0.3,2.35c0.01,0.19,0.07,0.38,0.14,0.54
		c0.05,0.1,0.17,0.23,0.27,0.23c0.1,0.01,0.24-0.1,0.3-0.2c0.43-0.76,0.66-1.58,0.56-2.46C19.38,17.54,19.4,17.52,19.67,17.54z
		 M11.67,19.52c0.06-0.04,0.09-0.05,0.11-0.06c0.67-0.53,0.95-1.26,1.04-2.08c0.01-0.08-0.02-0.17-0.04-0.25
		c-0.03-0.12-0.12-0.17-0.22-0.09c-0.13,0.1-0.28,0.21-0.36,0.34C11.79,18.02,11.71,18.74,11.67,19.52z M27.47,18.81
		c0.02,0.01,0.03,0.02,0.05,0.03c0.07-0.06,0.14-0.11,0.21-0.17c0.49-0.46,0.74-1.04,0.85-1.68c0.03-0.17,0.02-0.35,0-0.52
		c-0.01-0.12-0.12-0.17-0.21-0.1c-0.14,0.11-0.28,0.22-0.37,0.36C27.59,17.36,27.51,18.08,27.47,18.81z"/>
	<path class="st2" d="M6.84,13.05c-0.37,0.19-0.61,0.51-0.83,0.84c-0.56,0.83-0.88,1.77-1.09,2.74c-0.13,0.64-0.21,1.29-0.27,1.94
		c-0.03,0.31,0.06,0.62,0.09,0.93c0.01,0.06-0.01,0.11-0.01,0.17c-0.06-0.01-0.14,0.01-0.18-0.02C4.13,19.38,3.82,19,3.79,18.5
		c-0.1-1.73,0.18-3.38,1.17-4.85c0.47-0.69,1.07-1.22,1.92-1.39c0.45-0.09,0.9-0.19,1.36-0.09c0.75,0.16,1.29,0.61,1.65,1.26
		c1,1.78,0.82,4.23-0.72,5.81c-0.4,0.41-0.87,0.73-1.43,0.91c-0.04,0.01-0.07,0.03-0.14,0.06c0.32,0.43,0.6,0.86,0.94,1.24
		c0.35,0.39,0.73,0.75,1.14,1.08c0.44,0.36,0.94,0.54,1.53,0.32c0.12,0.36,0.08,0.7,0.01,1.04c-0.06,0.3-0.09,0.31-0.4,0.27
		c-0.57-0.07-1.01-0.39-1.41-0.76c-0.67-0.61-1.17-1.35-1.63-2.13c-0.16-0.26-0.32-0.53-0.48-0.79c-0.14-0.23-0.14-0.23-0.47-0.22
		c-0.01,0.52-0.03,1.05-0.04,1.58c-0.01,0.53,0,1.05,0,1.59c-0.37-0.32-0.72-0.66-0.74-1.22c-0.02-0.7-0.05-1.4-0.07-2.1
		c0-0.11-0.03-0.19-0.13-0.26c-0.46-0.33-0.7-0.8-0.85-1.33c-0.06-0.21,0.04-0.37,0.22-0.5c0.23,0.44,0.39,0.91,0.79,1.28
		c0.03-0.31,0.04-0.59,0.07-0.86c0.17-1.37,0.34-2.74,0.52-4.1c0.05-0.39,0.16-0.78,0.23-1.17C6.85,13.11,6.84,13.08,6.84,13.05
		c0-0.01,0.01-0.01,0.02-0.01c0,0-0.01,0-0.01,0C6.85,13.04,6.84,13.05,6.84,13.05z M6.88,19.56c0.06,0,0.1,0.01,0.13,0
		c0.55-0.1,0.99-0.38,1.35-0.79c1.01-1.15,1.38-2.49,1.12-3.99c-0.11-0.63-0.38-1.19-0.93-1.56c-0.49-0.33-1.03-0.46-1.64-0.24
		C7,13.02,7.05,13.05,7.1,13.08c0.59,0.32,0.81,0.83,0.63,1.46c-0.02,0.07-0.04,0.14-0.06,0.21c-0.34,1.27-0.54,2.57-0.7,3.87
		C6.93,18.93,6.91,19.24,6.88,19.56z"/>
	<path class="st3" d="M21.26,7.4c0.02,0.03,0.05,0.07,0.05,0.1c-0.09,0.26-0.14,0.55-0.29,0.78c-0.19,0.28-0.49,0.17-0.68-0.21
		c-0.04,0.07-0.07,0.14-0.12,0.21c-0.12,0.18-0.3,0.18-0.39-0.02c-0.04-0.1-0.06-0.21-0.06-0.32c0-0.26,0.02-0.52,0.03-0.8
		c-0.34,0.37-0.29,0.8-0.27,1.24c-0.15-0.01-0.23-0.08-0.24-0.22c-0.01-0.25,0-0.51,0-0.76c0-0.07,0-0.14,0-0.24
		c-0.34,0.37-0.28,0.8-0.27,1.21C19.01,8.37,19,8.38,18.98,8.39c-0.07-0.08-0.15-0.17-0.19-0.22c-0.09,0.07-0.19,0.21-0.31,0.22
		c-0.08,0.01-0.19-0.13-0.29-0.21c-0.27,0.3-0.33,0.3-0.59-0.09c-0.03,0.06-0.06,0.12-0.1,0.17c-0.06,0.06-0.14,0.15-0.19,0.14
		c-0.08-0.02-0.19-0.1-0.21-0.17c-0.05-0.16-0.06-0.33-0.06-0.5c0-0.19,0.03-0.39,0.03-0.59c-0.12,0.18-0.25,0.35-0.26,0.58
		c-0.01,0.21,0,0.43,0,0.65c-0.18-0.01-0.24-0.12-0.24-0.26c0-0.37,0.02-0.74,0.04-1.12c0-0.07,0.02-0.14,0.04-0.24
		c0.1,0.08,0.18,0.15,0.26,0.22c0.02-0.02,0.04-0.05,0.07-0.06c0.08-0.04,0.2-0.14,0.23-0.11c0.08,0.06,0.16,0.17,0.16,0.26
		c0,0.27-0.04,0.55-0.06,0.82c0,0.07,0.01,0.14,0.01,0.2c0.02,0.01,0.05,0.01,0.07,0.02c0.06-0.16,0.13-0.31,0.18-0.47
		c0.06-0.18,0.08-0.37,0.15-0.54c0.1-0.25,0.27-0.36,0.44-0.32c0.15,0.03,0.25,0.23,0.27,0.46c0.03,0.29,0.07,0.57,0.11,0.89
		c0.29-0.41,0.26-0.87,0.31-1.38c0.12,0.1,0.19,0.17,0.27,0.24c0.24-0.28,0.27-0.28,0.5,0.01c0.02-0.02,0.03-0.04,0.05-0.06
		c0.09-0.05,0.18-0.09,0.27-0.14C20,6.9,20.1,7.02,20.1,7.13c0.01,0.25-0.04,0.49-0.06,0.74c-0.01,0.07,0,0.14,0,0.21
		c0.02,0.01,0.05,0.01,0.07,0.02c0.06-0.14,0.13-0.27,0.17-0.41c0.05-0.16,0.06-0.34,0.12-0.49c0.05-0.12,0.12-0.25,0.22-0.34
		c0.06-0.06,0.2-0.1,0.28-0.07c0.08,0.03,0.15,0.15,0.16,0.24c0.02,0.32-0.08,0.59-0.33,0.8c-0.05,0.04-0.1,0.12-0.09,0.17
		c0.01,0.06,0.08,0.15,0.12,0.15c0.06,0,0.16-0.05,0.19-0.1c0.08-0.13,0.13-0.28,0.19-0.43c0.03-0.07,0.04-0.15,0.06-0.22
		C21.22,7.41,21.24,7.4,21.26,7.4z M17.98,8.12c0.06-0.08,0.12-0.14,0.14-0.22c0.07-0.24,0.13-0.48,0.18-0.72
		c0.01-0.05-0.05-0.15-0.1-0.17C18.16,7,18.05,7.05,18.03,7.1c-0.07,0.19-0.11,0.38-0.16,0.58C17.83,7.82,17.86,7.97,17.98,8.12z
		 M20.61,7.68c0.24-0.14,0.38-0.47,0.28-0.65C20.7,7.14,20.6,7.38,20.61,7.68z"/>
	<path class="st4" d="M14.15,7.14c-0.29,0.36-0.3,0.79-0.24,1.23c-0.21-0.03-0.26-0.17-0.25-0.31c0.01-0.42,0.03-0.85,0.05-1.33
		c0.13,0.1,0.2,0.17,0.28,0.23c0.08-0.06,0.16-0.17,0.25-0.17c0.08,0,0.17,0.11,0.28,0.19c0,0.01,0-0.02,0.02-0.04
		c0.09-0.06,0.18-0.11,0.26-0.16c0.06,0.1,0.16,0.21,0.16,0.31c0,0.25-0.04,0.49-0.06,0.74c-0.01,0.08,0,0.16,0,0.26
		c0.22-0.15,0.23-0.18,0.37-1.33c0.18,0.07,0.27,0.18,0.26,0.37c-0.02,0.25-0.05,0.49-0.08,0.74c-0.01,0.07,0,0.14,0,0.22
		c0.17-0.07,0.22-0.15,0.29-0.6c0.04-0.23,0.04-0.47,0.06-0.7c0.21,0.06,0.3,0.19,0.27,0.41c-0.05,0.46-0.1,0.92-0.15,1.38
		c-0.02,0.14,0,0.24,0.13,0.31c0.06,0.03,0.12,0.08,0.14,0.13c0.03,0.05,0.02,0.13,0.03,0.19c-0.07,0-0.15,0.02-0.22,0
		c-0.06-0.02-0.11-0.09-0.13-0.1c-0.16,0.16-0.28,0.34-0.45,0.45c-0.09,0.06-0.26,0.03-0.38-0.01c-0.25-0.09-0.35-0.43-0.24-0.73
		c0.11-0.3,0.35-0.37,0.81-0.23c0.02-0.11,0.03-0.21,0.05-0.33c-0.3,0.22-0.37,0.19-0.49-0.19c-0.03,0.06-0.05,0.13-0.09,0.17
		c-0.07,0.06-0.16,0.16-0.22,0.15c-0.08-0.02-0.19-0.12-0.2-0.2c-0.04-0.22-0.03-0.45-0.03-0.68c0-0.11,0.02-0.22,0.03-0.37
		c-0.35,0.38-0.3,0.81-0.28,1.24c-0.17-0.03-0.24-0.12-0.24-0.27C14.15,7.78,14.15,7.46,14.15,7.14z M15.58,8.9
		c-0.18-0.12-0.35-0.12-0.51-0.04c-0.14,0.07-0.18,0.2-0.13,0.33c0.03,0.08,0.11,0.17,0.18,0.2c0.13,0.05,0.24-0.02,0.3-0.15
		C15.48,9.14,15.53,9.02,15.58,8.9z"/>
	<path class="st4" d="M14.04,5.43c-0.05-0.12-0.13-0.24-0.15-0.37c-0.03-0.16-0.01-0.33-0.01-0.49c0.01-0.29,0-0.31-0.31-0.41
		c-0.08,0.19-0.15,0.39-0.26,0.57c-0.13,0.21-0.28,0.43-0.47,0.6c-0.2,0.18-0.55,0.12-0.71-0.11c-0.31-0.45-0.24-1.26,0.41-1.51
		c0.27-0.1,0.55-0.06,0.88,0.03c0.06-0.38,0.13-0.75,0.16-1.12c0.01-0.09-0.08-0.27-0.15-0.28c-0.11-0.02-0.26,0.04-0.34,0.12
		C12.88,2.69,12.85,3,12.82,3.3c-0.02,0.17-0.02,0.18-0.2,0.22c-0.12-0.39,0.15-1.16,0.49-1.36c0.2-0.12,0.39-0.09,0.54,0.09
		c0.14,0.17,0.2,0.37,0.18,0.58c-0.03,0.28-0.07,0.56-0.12,0.83c-0.04,0.23-0.05,0.23,0.19,0.35c0.1-0.6,0.2-1.2,0.31-1.82
		c0.28,0.15,0.31,0.26,0.26,0.5c-0.1,0.45-0.19,0.91-0.28,1.36c-0.03,0.13,0.01,0.22,0.14,0.29c0.07,0.04,0.2,0.07,0.12,0.2
		c-0.08,0.14-0.15,0.01-0.23-0.02c-0.02-0.01-0.04-0.01-0.09-0.03c0,0.32,0,0.62,0,0.92C14.1,5.42,14.07,5.42,14.04,5.43z
		 M13.28,4.06c-0.43-0.17-0.95,0.04-1.12,0.44c-0.09,0.21-0.03,0.46,0.13,0.56c0.15,0.1,0.33,0.06,0.51-0.12
		C13.04,4.69,13.17,4.38,13.28,4.06z"/>
	<path class="st5" d="M16.93,3.32c0.05,0.34,0.03,0.36-0.27,0.41c-0.59,0.09-0.47,0.02-0.54,0.54c-0.02,0.18-0.01,0.36,0,0.55
		c0,0.19,0.13,0.26,0.29,0.22c0.18-0.04,0.35-0.13,0.53-0.2c0.16,0.25,0.09,0.45-0.2,0.53c-0.45,0.14-0.78-0.06-0.85-0.53
		c-0.04-0.26-0.03-0.53-0.05-0.8c-0.28,0.16-0.35,0.45-0.2,0.81c-0.13,0.04-0.18,0.01-0.21-0.14c-0.08-0.4,0.05-0.72,0.35-0.98
		c0.07-0.07,0.13-0.17,0.16-0.27c0.06-0.23,0.09-0.47,0.13-0.73c-0.29,0.06-0.49,0.2-0.64,0.43c-0.19,0.28,0.01,0.49,0.14,0.71
		c-0.2,0.06-0.3-0.02-0.37-0.16c-0.2-0.41-0.06-0.92,0.32-1.18c0.37-0.25,0.8-0.32,1.22-0.39c0.15-0.03,0.3-0.05,0.5-0.08
		c0,0.14,0.01,0.27-0.01,0.4c0,0.03-0.08,0.07-0.13,0.08c-0.22,0.04-0.45,0.07-0.68,0.11c-0.05,0.01-0.1,0.03-0.17,0.04
		c0.22,0.25,0.03,0.52,0.05,0.8C16.5,3.42,16.71,3.37,16.93,3.32z"/>
	<path class="st5" d="M24.93,3.52c-0.09,0.39-0.18,0.78-0.29,1.17c-0.03,0.12-0.12,0.23-0.2,0.33c-0.32,0.39-0.81,0.36-1.05-0.09
		c-0.11-0.2-0.19-0.44-0.19-0.67c0-0.42,0.03-0.85,0.12-1.26c0.05-0.25,0.18-0.49,0.33-0.7c0.28-0.38,0.69-0.34,0.95,0.05
		c0.19,0.3,0.24,0.63,0.27,0.97c0,0.06,0.01,0.12,0.01,0.18C24.9,3.51,24.92,3.52,24.93,3.52z M23.43,3.2c0.03,0,0.06,0,0.09,0
		c0.09,0.08,0.2,0.15,0.26,0.25c0.02,0.03-0.07,0.15-0.13,0.21c-0.12,0.13-0.18,0.27-0.09,0.44c0.04,0.09,0.08,0.17,0.12,0.26
		c-0.01,0.02-0.02,0.03-0.03,0.05c-0.08-0.04-0.16-0.08-0.27-0.13c0.03,0.16,0.04,0.32,0.1,0.46c0.14,0.33,0.49,0.38,0.71,0.09
		c0.06-0.08,0.13-0.17,0.15-0.27c0.09-0.32,0.18-0.64,0.22-0.97c0.04-0.34,0.03-0.69-0.13-1.02c-0.16-0.32-0.48-0.36-0.68-0.07
		C23.61,2.73,23.53,2.97,23.43,3.2z"/>
	<path class="st6" d="M18.77,2.26c0.24,0.14,0.28,0.23,0.24,0.53c-0.1,0.77-0.3,1.53-0.59,2.29c0.56,0.05,1.09,0.35,1.65,0.04
		c0.12,0.24,0.04,0.43-0.21,0.47c-0.16,0.03-0.34,0.01-0.5-0.02c-0.38-0.08-0.75-0.17-1.12-0.27c-0.04-0.01-0.08-0.1-0.07-0.14
		c0.13-0.46,0.29-0.92,0.39-1.39C18.65,3.27,18.7,2.77,18.77,2.26z"/>
	<path class="st4" d="M21.35,2.25c0.24,0.09,0.33,0.2,0.31,0.42c-0.07,0.77-0.26,1.5-0.53,2.22C21.11,4.95,21.09,5,21.06,5.08
		c0.57,0.04,1.1,0.35,1.65,0.03c0.11,0.26,0.04,0.43-0.22,0.47c-0.15,0.03-0.31,0.02-0.46-0.02c-0.39-0.08-0.77-0.18-1.16-0.28
		c-0.03-0.01-0.08-0.11-0.06-0.14c0.31-0.74,0.44-1.53,0.53-2.32C21.37,2.64,21.35,2.45,21.35,2.25z"/>
	<path class="st3" d="M22.48,6.54c0.2,0.12,0.25,0.22,0.21,0.43c-0.05,0.25,0,0.51,0.02,0.77c0.01,0.14,0.06,0.28,0.04,0.4
		c-0.02,0.1-0.11,0.24-0.19,0.25c-0.11,0.02-0.23-0.07-0.34-0.12c-0.04-0.02-0.06-0.08-0.09-0.13c-0.01,0.01-0.02,0.01-0.03,0.02
		c-0.08,0.11-0.16,0.29-0.3,0.21c-0.1-0.05-0.18-0.23-0.18-0.35c-0.01-0.27,0.04-0.55,0.07-0.82c0.02-0.15,0.04-0.29,0.07-0.47
		c0.18,0.09,0.27,0.2,0.24,0.39c-0.05,0.24-0.09,0.47-0.12,0.71c-0.01,0.07,0,0.15,0,0.22c0.02,0.01,0.04,0.02,0.06,0.02
		c0.06-0.11,0.13-0.22,0.17-0.34c0.1-0.3,0.17-0.6,0.26-0.9C22.38,6.76,22.43,6.66,22.48,6.54z M22.54,7.88
		c-0.18-0.01-0.32-0.02-0.28,0.15c0.02,0.07,0.11,0.13,0.16,0.19C22.45,8.11,22.49,8,22.54,7.88z"/>
	<path class="st7" d="M21.77,5.91c0.4,0.23,0.28,0.54,0.23,0.86C21.68,6.55,21.82,6.23,21.77,5.91z"/>
	<path class="st8" d="M19.67,17.54c-0.27-0.02-0.28,0-0.26,0.27c0.09,0.88-0.13,1.7-0.56,2.46c-0.05,0.1-0.2,0.2-0.3,0.2
		c-0.1-0.01-0.22-0.13-0.27-0.23c-0.08-0.17-0.13-0.36-0.14-0.54c-0.06-0.8,0-1.59,0.3-2.35c0.07-0.17,0.17-0.34,0.29-0.49
		c0.25-0.3,0.57-0.25,0.73,0.09C19.55,17.13,19.6,17.34,19.67,17.54z"/>
	<path class="st9" d="M11.67,19.52c0.04-0.78,0.12-1.5,0.52-2.14c0.09-0.14,0.23-0.24,0.36-0.34c0.1-0.08,0.19-0.03,0.22,0.09
		c0.02,0.08,0.05,0.17,0.04,0.25c-0.09,0.82-0.36,1.55-1.04,2.08C11.76,19.47,11.73,19.48,11.67,19.52z"/>
	<path class="st10" d="M27.47,18.81c0.03-0.73,0.11-1.44,0.51-2.08c0.09-0.14,0.24-0.26,0.37-0.36c0.1-0.08,0.2-0.03,0.21,0.1
		c0.02,0.17,0.03,0.35,0,0.52c-0.11,0.65-0.36,1.23-0.85,1.68c-0.07,0.06-0.14,0.11-0.21,0.17C27.51,18.83,27.49,18.82,27.47,18.81z
		"/>
	<path class="st0" d="M30.74,16.91c0-0.01,0.01-0.01,0.01-0.02c0,0,0,0.01,0,0.01C30.75,16.9,30.75,16.9,30.74,16.91
		C30.74,16.9,30.74,16.91,30.74,16.91z"/>
	<path class="st0" d="M6.88,19.56c0.03-0.32,0.05-0.63,0.08-0.94c0.16-1.3,0.36-2.6,0.7-3.87c0.02-0.07,0.04-0.14,0.06-0.21
		c0.18-0.64-0.03-1.15-0.63-1.46c-0.05-0.03-0.1-0.05-0.18-0.09c0.61-0.22,1.15-0.09,1.64,0.24c0.55,0.37,0.82,0.93,0.93,1.56
		c0.25,1.5-0.12,2.84-1.12,3.99c-0.36,0.4-0.8,0.69-1.35,0.79C6.98,19.57,6.94,19.56,6.88,19.56z"/>
	<path class="st0" d="M6.84,13.05c0,0,0.01-0.01,0.01-0.01c0,0,0.01,0,0.01,0C6.85,13.04,6.85,13.05,6.84,13.05
		C6.84,13.05,6.84,13.05,6.84,13.05z"/>
	<path class="st11" d="M17.98,8.12c-0.12-0.15-0.15-0.29-0.11-0.44c0.05-0.19,0.1-0.39,0.16-0.58c0.02-0.05,0.13-0.1,0.16-0.09
		c0.05,0.02,0.11,0.12,0.1,0.17c-0.05,0.24-0.11,0.48-0.18,0.72C18.1,7.97,18.04,8.03,17.98,8.12z"/>
	<path class="st12" d="M20.61,7.68c-0.01-0.3,0.09-0.54,0.28-0.65C20.99,7.21,20.85,7.54,20.61,7.68z"/>
	<path class="st13" d="M15.58,8.9c-0.05,0.12-0.1,0.24-0.15,0.35c-0.06,0.13-0.17,0.2-0.3,0.15c-0.08-0.03-0.16-0.12-0.18-0.2
		c-0.05-0.13,0-0.26,0.13-0.33C15.23,8.78,15.4,8.78,15.58,8.9z"/>
	<path class="st14" d="M13.28,4.06c-0.11,0.32-0.24,0.63-0.48,0.88c-0.17,0.18-0.36,0.22-0.51,0.12c-0.16-0.11-0.22-0.36-0.13-0.56
		C12.34,4.1,12.85,3.89,13.28,4.06z"/>
	<path class="st14" d="M23.43,3.2c0.11-0.23,0.18-0.47,0.32-0.68c0.2-0.3,0.52-0.26,0.68,0.07c0.16,0.32,0.17,0.67,0.13,1.02
		c-0.04,0.33-0.14,0.65-0.22,0.97c-0.03,0.1-0.09,0.19-0.15,0.27c-0.22,0.28-0.58,0.24-0.71-0.09c-0.06-0.14-0.07-0.3-0.1-0.46
		c0.11,0.05,0.19,0.09,0.27,0.13c0.01-0.02,0.02-0.03,0.03-0.05c-0.04-0.09-0.08-0.18-0.12-0.26c-0.09-0.17-0.03-0.31,0.09-0.44
		c0.06-0.06,0.15-0.18,0.13-0.21c-0.06-0.1-0.17-0.17-0.26-0.25C23.48,3.2,23.45,3.2,23.43,3.2z"/>
	<path class="st15" d="M22.54,7.88C22.49,8,22.45,8.11,22.42,8.21c-0.06-0.06-0.15-0.12-0.16-0.19C22.22,7.86,22.36,7.87,22.54,7.88
		z"/>
</g>
</svg>
